<?xml version="1.0" encoding="UTF-8"?><svg id="Layer_2" xmlns="http://www.w3.org/2000/svg" viewBox="0 0 167.95 77.99"><defs><style>.cls-1{fill:#0d0d0d;}</style></defs><g id="Layer_1-2"><g><path class="cls-1" d="M41.37,8.82l9.6-.94L41.37,1.99l-9.78,6.01,9.77,.82Zm-7.71,8.98l6.74-7.35-10.56-.89-6.43,8.24h10.25Zm26.28,0l-6.78-8.42-10.89,1.06,6.18,7.36h11.49Zm10.74,4.36l-3.59-10.79-11.53-1.7,6.28,7.8,8.84,4.69Zm-58.91,.84l9.52-5.24,6.38-8.18-12.03,1.78-3.87,11.64Zm.49,11.21l5.67-6.18,2.8-8.03-8.8,4.85,.32,9.36Zm58.83,.67l.21-10.48-8.81-4.68,2.23,8,.17,.41,6.2,6.75Zm-22.41,3.71l6.61-5.66-7.46,3.06,.85,2.6Zm-14.59,.03l.86-2.63-7.55-3.1,6.69,5.73Zm42.53,6.94l4.16-10.51-7.81-8.8-.2,9.8,3.85,9.51Zm-69.98,1.3l4.01-10.35-.38-10.81L1.96,35.06l4.68,11.81Zm43.63,2.04l-4.55-13.9,17.28-7.09-2.34-8.42h-13.01l-6.33-7.55-6.91,7.55h-11.71l-2.93,8.42,17.29,7.09-4.55,13.9h17.75Zm-35.71,6.3l4.24-8.57-6.8-8.91-3.96,10.23,6.52,7.25Zm53.84,.44l7.15-8.18-4.26-10.53-7.71,9,4.82,9.72Zm-2.51,11.85l10.14-5.49-.34-12.12-6.51,7.44-3.3,10.17Zm-14.23,.63c3.44-7.15,8.13-11.2,14.73-12.71l-4.82-9.75,8.27-9.65-6.04-6.57-3.47,1.42-11.07,9.47,3.12,9.53-10.1,5.41v7.55l9.38,5.3Zm-35.39-12.52c3.18,1.05,6.2,2.54,8.96,4.44,3.02,2.05,5.47,4.84,7.1,8.11l8.25-5.33v-7.54l-10.16-5.41,3.11-9.49-11.16-9.54-3.41-1.41-6.09,6.64,7.93,10.37-4.53,9.18Zm1.85,12.57l-3.56-10.43-7.49-8.31-.35,12.58,11.4,6.16Zm49.42-11.25c-6.65,1.29-11.34,5.34-14.68,12.67l11.13-1.73,3.54-10.93Zm-36.35,12.85c-2.78-6.73-9.47-10.41-14.94-12.36l3.68,10.78,11.26,1.58Zm10.31,6.17l10.1-5.88s-7.29-2.03-10.22-2.03-9.04,2.03-9.04,2.03l9.15,5.89Zm-2.38,.34l-7.93-4.79-10.4-1.46,8.33,6.25h9.99Zm15.98,0l7.37-6.46-9.7,1.51-7.92,4.95h10.25Zm-26.54,1.7l-10.63-7.97-12.94-7.01,.41-14.66L0,34.72l9.74-10.97,4.63-13.92,14.51-2.14L41.38,0l12.4,7.62h.14s.07,.08,.07,.08l14.39,2.12,4.48,13.48,.16,.45,9.73,10.96-5.4,13.64,.41,14.66-12.93,7-9.1,7.97-27.17,.02Z"/><g><path class="cls-1" d="M96.9,38.29h11.87v3.4h-15.53V14.69h3.66v23.6Z"/><path class="cls-1" d="M109.07,32.58c0-5.71,3.62-9.67,8.92-9.67s8.59,3.58,8.59,9v1.31l-14.11,.04c.26,3.85,2.28,5.97,5.75,5.97,2.73,0,4.52-1.12,5.12-3.21h3.29c-.9,3.92-3.96,6.12-8.48,6.12-5.38,0-9.07-3.88-9.07-9.56Zm3.47-1.68h10.53c0-3.02-1.98-5.04-5.08-5.04s-5,1.83-5.45,5.04Z"/><path class="cls-1" d="M137.34,22.95c5.45,0,9.48,3.96,9.48,9.6s-4.03,9.6-9.48,9.6-9.52-3.96-9.52-9.6,4.03-9.6,9.52-9.6Zm0,16.06c3.51,0,5.97-2.65,5.97-6.46s-2.46-6.46-5.97-6.46-5.97,2.65-5.97,6.46,2.43,6.46,5.97,6.46Z"/><path class="cls-1" d="M157.91,41.69h-4.26l6.76-8.96c-.93,.37-1.9,.56-2.84,.56-5.6,0-9.37-4.03-9.37-9.41s4.26-9.67,9.82-9.67,9.93,4.22,9.93,9.71c0,3.17-.97,5.45-3.73,9.22l-6.31,8.55Zm.11-24.2c-3.58,0-6.12,2.69-6.12,6.38s2.54,6.31,6.12,6.31,6.2-2.61,6.2-6.31-2.54-6.38-6.2-6.38Z"/></g><g><path class="cls-1" d="M94.9,61.78c0,1.62,1.21,2.62,3.17,2.62,2.16,0,3.43-.92,3.43-2.42,0-1.15-.58-1.82-2.22-2.22l-2.39-.61c-2.42-.61-3.61-1.88-3.61-3.78,0-2.45,2.05-4.01,5.05-4.01s4.85,1.62,4.93,4.21h-1.93c-.06-1.62-1.18-2.57-3.06-2.57s-3.06,.84-3.06,2.34c0,1.07,.75,1.82,2.28,2.19l2.39,.61c2.42,.61,3.52,1.73,3.52,3.75,0,2.51-2.14,4.16-5.31,4.16s-5.11-1.67-5.11-4.27h1.9Z"/><path class="cls-1" d="M106.79,65.7v-12.29h-2.8v-1.67h2.8v-4.41h1.96v4.41h2.8v1.67h-2.8v12.29h-1.96Z"/><path class="cls-1" d="M124.8,51.74v13.97h-1.73l-.26-2.37c-.78,1.62-2.71,2.71-4.91,2.71-3.29,0-5.08-2.25-5.08-5.66v-8.68h2.02v8.05c0,3.32,1.47,4.5,3.69,4.5,2.68,0,4.27-1.79,4.27-5.11v-7.42h1.99Z"/><path class="cls-1" d="M126.53,58.75c0-4.21,2.39-7.39,6.55-7.39,2.31,0,4.15,1.01,5.14,3.03v-9.72h1.99v21.04h-1.73l-.2-2.86c-.98,2.16-2.94,3.2-5.28,3.2-4.07,0-6.46-3.12-6.46-7.3Zm11.66-.06c0-3.2-1.79-5.54-4.85-5.54s-4.79,2.34-4.79,5.54,1.76,5.54,4.79,5.54,4.85-2.31,4.85-5.54Z"/><path class="cls-1" d="M142.72,46.43c0-.81,.66-1.5,1.47-1.5s1.5,.69,1.5,1.5-.69,1.47-1.5,1.47-1.47-.66-1.47-1.47Zm.49,5.31h1.99v13.97h-1.99v-13.97Z"/><path class="cls-1" d="M154.32,51.36c4.1,0,7.1,3.09,7.1,7.36s-3,7.33-7.1,7.33-7.1-3.09-7.1-7.33,3-7.36,7.1-7.36Zm0,12.9c2.97,0,5.08-2.28,5.08-5.57s-2.11-5.54-5.08-5.54-5.08,2.31-5.08,5.54,2.08,5.57,5.08,5.57Z"/></g></g></g></svg>