<?xml version="1.0" standalone="no"?>
<!DOCTYPE svg PUBLIC "-//W3C//DTD SVG 20010904//EN"
 "http://www.w3.org/TR/2001/REC-SVG-20010904/DTD/svg10.dtd">
<svg version="1.0" xmlns="http://www.w3.org/2000/svg"
 width="512.000000pt" height="512.000000pt" viewBox="0 0 512.000000 512.000000"
 preserveAspectRatio="xMidYMid meet">
<metadata>
Created by potrace 1.14, written by Peter Selinger 2001-2017
</metadata>
<g transform="translate(0.000000,512.000000) scale(0.100000,-0.100000)"
fill="#000000" stroke="none">
<path d="M2211 4615 c-201 -124 -368 -225 -372 -225 -4 0 -175 -25 -380 -55
-206 -30 -393 -58 -416 -61 l-42 -6 -136 -409 -136 -408 -285 -320 -284 -320
159 -403 158 -403 -12 -425 c-7 -234 -12 -426 -12 -426 1 -1 171 -93 377 -204
l375 -202 312 -234 313 -234 796 0 796 0 266 233 267 234 375 203 c206 111
376 203 377 204 2 1 -3 196 -9 432 l-12 429 137 346 c133 336 137 347 137 421
l0 75 -265 299 -265 298 -136 408 c-74 224 -139 408 -142 408 -4 0 -194 27
-422 61 l-415 61 -366 224 c-201 123 -368 224 -370 224 -2 0 -168 -102 -368
-225z m650 -61 c149 -92 268 -168 266 -170 -2 -2 -116 -16 -253 -30 -271 -28
-314 -28 -657 2 -117 10 -194 21 -189 26 18 18 537 336 550 337 7 1 134 -74
283 -165z m608 -506 c105 -131 191 -240 191 -243 0 -3 -150 -5 -333 -5 l-332
0 -177 212 c-98 116 -176 213 -174 216 7 7 547 60 592 59 l41 -2 192 -237z
m-1699 226 c0 -3 -81 -110 -181 -237 l-181 -232 -276 -152 c-152 -84 -277
-151 -278 -150 -2 1 48 153 109 337 l112 335 45 8 c55 10 608 94 633 96 9 0
17 -2 17 -5z m459 -19 c156 -13 285 -26 287 -27 2 -2 -85 -99 -192 -216 l-195
-212 -294 0 c-162 0 -295 3 -295 6 0 3 82 111 182 240 132 169 188 234 203
234 11 0 148 -11 304 -25z m1532 -30 c167 -25 309 -47 315 -49 12 -4 220 -614
212 -621 -2 -2 -118 57 -258 132 l-255 136 -160 199 c-214 267 -201 248 -177
248 10 0 156 -20 323 -45z m-983 -320 l167 -200 382 -3 c353 -2 382 -4 387
-20 32 -103 126 -450 126 -462 0 -11 -58 -39 -192 -94 -626 -256 -803 -329
-807 -333 -3 -2 226 -716 257 -800 3 -10 -104 -13 -513 -13 l-517 0 6 28 c3
15 62 197 130 405 l124 379 -36 15 c-21 9 -244 101 -497 205 -252 103 -463
192 -467 196 -4 4 30 116 76 248 l83 239 344 3 344 3 200 219 c191 209 201
218 218 202 9 -10 93 -108 185 -217z m1303 -357 l249 -132 -1 -166 c-1 -91 -4
-228 -8 -304 l-6 -140 -159 175 c-88 96 -170 185 -182 199 -15 17 -41 94 -84
245 -33 121 -63 228 -66 238 -3 9 -2 17 2 17 3 0 118 -60 255 -132z m-2786
-104 c-42 -121 -84 -230 -93 -244 -8 -14 -83 -99 -166 -189 l-151 -163 -6 43
c-4 24 -9 146 -13 270 l-7 227 253 140 c139 77 254 139 256 137 1 -1 -32 -101
-73 -221z m-520 -495 l7 -246 -111 -289 c-62 -159 -116 -292 -120 -297 -6 -6
-252 598 -266 656 -5 18 41 75 232 291 l238 269 6 -69 c4 -38 10 -180 14 -315z
m3894 88 c116 -131 211 -244 211 -252 0 -21 -224 -581 -234 -586 -5 -2 -58
115 -118 261 l-108 265 0 130 c0 72 3 201 7 288 5 126 9 155 18 145 7 -7 108
-120 224 -251z m-2876 -277 c180 -154 327 -282 327 -284 0 -2 -40 -127 -89
-277 -50 -150 -88 -275 -87 -277 2 -1 133 -72 292 -157 l289 -153 3 -225 2
-224 -234 -152 c-128 -83 -237 -151 -242 -151 -5 0 -22 26 -39 57 -42 81 -151
218 -231 292 -134 123 -390 274 -586 347 -43 16 -78 34 -78 41 0 7 56 126 125
263 69 137 125 256 125 262 0 7 -102 145 -225 306 -124 161 -225 297 -225 303
0 5 79 94 175 198 l175 189 98 -39 c98 -40 102 -43 425 -319z m2280 164 c93
-102 167 -190 164 -197 -3 -7 -109 -133 -236 -281 -127 -148 -231 -275 -231
-283 0 -7 61 -135 136 -284 74 -149 133 -274 130 -277 -3 -2 -50 -19 -103 -37
-287 -94 -504 -277 -675 -571 -26 -43 -52 -91 -59 -106 -7 -16 -15 -28 -19
-28 -7 0 -483 267 -527 296 -23 14 -23 17 -23 229 0 212 0 215 23 229 12 8
144 80 292 159 149 80 271 151 272 159 2 7 -37 133 -86 281 l-89 268 324 277
c305 261 329 279 412 314 48 20 96 36 107 36 13 0 78 -63 188 -184z m-2040
-117 c87 -36 161 -67 164 -71 8 -8 -35 -146 -45 -146 -7 0 -317 262 -357 302
-23 22 -37 27 238 -85z m1322 74 c-74 -71 -340 -290 -346 -284 -7 9 -50 135
-46 139 5 5 393 163 402 164 5 0 1 -9 -10 -19z m1099 -503 c65 -161 120 -298
123 -304 3 -8 -311 -379 -397 -468 -18 -19 -22 -13 -159 263 -137 276 -140
284 -123 305 65 82 425 496 431 496 4 0 60 -132 125 -292z m-3394 -3 c101
-132 187 -245 192 -252 6 -7 -34 -97 -114 -257 -68 -135 -125 -246 -129 -246
-3 0 -75 78 -160 172 -85 95 -168 189 -186 209 l-32 35 58 150 c32 82 84 216
116 297 32 82 61 145 65 140 4 -4 90 -116 190 -248z m-262 -675 l211 -235 46
-130 c161 -465 165 -477 147 -470 -36 13 -614 328 -631 344 -18 15 -18 29 -11
256 5 132 9 293 9 358 1 65 5 117 9 115 5 -1 104 -109 220 -238z m3796 23 c3
-104 9 -260 12 -348 l6 -161 -292 -158 c-160 -86 -294 -156 -296 -154 -2 2 39
134 90 294 l94 289 183 212 c101 116 187 212 190 212 4 1 10 -83 13 -186z
m-487 -225 c-2 -7 -48 -148 -101 -313 -53 -165 -101 -304 -105 -308 -11 -11
-633 -108 -641 -101 -3 3 13 40 35 81 180 342 421 551 730 633 85 23 88 23 82
8z m-2772 -113 c220 -107 379 -227 498 -376 61 -75 155 -235 145 -245 -7 -6
-640 84 -649 93 -10 10 -209 589 -209 609 0 18 42 2 215 -81z m1426 -546 c139
-25 409 -90 409 -98 0 -3 -131 -82 -291 -174 l-291 -168 -166 107 c-92 58
-211 134 -264 168 -53 33 -97 64 -98 67 0 9 242 77 353 99 122 24 210 24 348
-1z m1019 -113 c-14 -13 -108 -97 -210 -185 l-184 -161 -293 0 c-161 0 -293 2
-293 4 0 3 101 68 224 145 l224 140 248 39 c137 22 262 40 279 41 l30 1 -25
-24z m-2085 -26 l289 -41 159 -96 c87 -52 191 -115 230 -139 l71 -44 -292 0
-292 0 -222 167 c-239 178 -258 193 -242 193 5 0 140 -18 299 -40z"/>
</g>
</svg>
